<svg width="50" height="50" viewBox="0 0 50 50" fill="none" xmlns="http://www.w3.org/2000/svg">
<path d="M5.55556 50C4.02778 50 2.72037 49.4565 1.63333 48.3694C0.546296 47.2824 0.00185185 45.9741 0 44.4444V5.55555C0 4.02778 0.544445 2.72037 1.63333 1.63333C2.72222 0.546296 4.02963 0.00185185 5.55556 0H36.1111L50 13.8889V44.4444C50 45.9722 49.4565 47.2805 48.3694 48.3694C47.2824 49.4583 45.9741 50.0018 44.4444 50H5.55556ZM5.55556 44.4444H44.4444V16.6667H33.3333V5.55555H5.55556V44.4444ZM11.1111 38.8889H38.8889V33.3333H11.1111V38.8889ZM11.1111 16.6667H25V11.1111H11.1111V16.6667ZM11.1111 27.7778H38.8889V22.2222H11.1111V27.7778Z" fill="black"/>
</svg>
