<svg width="20" height="19" viewBox="0 0 20 19" fill="none" xmlns="http://www.w3.org/2000/svg">
<path d="M15.9145 6.64279C15.9145 5.36492 15.3053 4.13939 14.2209 3.23581C13.1366 2.33222 11.6659 1.82458 10.1325 1.82458C8.59898 1.82458 7.12831 2.33222 6.04398 3.23581C4.95964 4.13939 4.35047 5.36492 4.35047 6.64279C4.35047 12.264 1.45947 13.8701 1.45947 13.8701H18.8055C18.8055 13.8701 15.9145 12.264 15.9145 6.64279Z" stroke="#808080" stroke-width="2" stroke-linecap="round" stroke-linejoin="round"/>
<path d="M11.7996 17.0823C11.6302 17.3257 11.387 17.5277 11.0944 17.6681C10.8018 17.8085 10.4701 17.8825 10.1325 17.8825C9.79482 17.8825 9.4631 17.8085 9.17052 17.6681C8.87793 17.5277 8.63475 17.3257 8.46533 17.0823" stroke="#808080" stroke-width="2" stroke-linecap="round" stroke-linejoin="round"/>
</svg>
