<svg width="50" height="50" viewBox="0 0 50 50" fill="none" xmlns="http://www.w3.org/2000/svg">
<path d="M45.4545 36.3636V15.9091H13.6364V36.3636H45.4545ZM45.4545 4.54545C46.6601 4.54545 47.8162 5.02435 48.6687 5.87679C49.5211 6.72923 50 7.88538 50 9.09091V36.3636C50 37.5692 49.5211 38.7253 48.6687 39.5778C47.8162 40.4302 46.6601 40.9091 45.4545 40.9091H13.6364C12.4308 40.9091 11.2747 40.4302 10.4222 39.5778C9.5698 38.7253 9.09091 37.5692 9.09091 36.3636V9.09091C9.09091 7.88538 9.5698 6.72923 10.4222 5.87679C11.2747 5.02435 12.4308 4.54545 13.6364 4.54545H15.9091V0H20.4545V4.54545H38.6364V0H43.1818V4.54545H45.4545ZM4.54545 45.4545H36.3636V50H4.54545C3.33993 50 2.18377 49.5211 1.33133 48.6687C0.478895 47.8162 0 46.6601 0 45.4545V18.1818H4.54545V45.4545ZM40.9091 31.8182H31.8182V22.7273H40.9091V31.8182Z" fill="black"/>
</svg>
