<svg width="46" height="44" viewBox="0 0 46 44" fill="none" xmlns="http://www.w3.org/2000/svg">
<path d="M21 8.0625C21 10.1345 20.1769 12.1216 18.7118 13.5868C17.2466 15.0519 15.2595 15.875 13.1875 15.875C11.1155 15.875 9.12836 15.0519 7.66323 13.5868C6.1981 12.1216 5.375 10.1345 5.375 8.0625C5.375 5.9905 6.1981 4.00336 7.66323 2.53823C9.12836 1.0731 11.1155 0.25 13.1875 0.25C15.2595 0.25 17.2466 1.0731 18.7118 2.53823C20.1769 4.00336 21 5.9905 21 8.0625ZM31.9375 12.75C30.2676 12.7488 28.6064 12.9909 27.0063 13.4688C26.2867 12.5455 25.8409 11.4387 25.7196 10.2745C25.5983 9.11026 25.8064 7.93535 26.3201 6.88359C26.8339 5.83183 27.6327 4.94548 28.6255 4.32549C29.6184 3.7055 30.7654 3.37679 31.9359 3.37679C33.1065 3.37679 34.2535 3.7055 35.2463 4.32549C36.2392 4.94548 37.038 5.83183 37.5518 6.88359C38.0655 7.93535 38.2736 9.11026 38.1523 10.2745C38.031 11.4387 37.5852 12.5455 36.8656 13.4688C35.2665 12.9912 33.6064 12.7491 31.9375 12.75ZM5.375 19H18.6781C16.1339 22.0765 14.7444 25.9452 14.75 29.9375C14.75 30.9813 14.8406 31.999 15.0219 32.9906C14.4406 33.0385 13.8292 33.0625 13.1875 33.0625C0.6875 33.0625 0.6875 23.9219 0.6875 23.9219V23.6875C0.6875 22.4443 1.18136 21.252 2.06044 20.3729C2.93951 19.4939 4.1318 19 5.375 19ZM46 29.9375C46 33.6671 44.5184 37.244 41.8812 39.8812C39.244 42.5184 35.6671 44 31.9375 44C28.2079 44 24.631 42.5184 21.9938 39.8812C19.3566 37.244 17.875 33.6671 17.875 29.9375C17.875 26.2079 19.3566 22.631 21.9938 19.9938C24.631 17.3566 28.2079 15.875 31.9375 15.875C35.6671 15.875 39.244 17.3566 41.8812 19.9938C44.5184 22.631 46 26.2079 46 29.9375ZM33.5 23.6875C33.5 23.2731 33.3354 22.8757 33.0424 22.5826C32.7493 22.2896 32.3519 22.125 31.9375 22.125C31.5231 22.125 31.1257 22.2896 30.8326 22.5826C30.5396 22.8757 30.375 23.2731 30.375 23.6875V28.375H25.6875C25.2731 28.375 24.8757 28.5396 24.5826 28.8326C24.2896 29.1257 24.125 29.5231 24.125 29.9375C24.125 30.3519 24.2896 30.7493 24.5826 31.0424C24.8757 31.3354 25.2731 31.5 25.6875 31.5H30.375V36.1875C30.375 36.6019 30.5396 36.9993 30.8326 37.2924C31.1257 37.5854 31.5231 37.75 31.9375 37.75C32.3519 37.75 32.7493 37.5854 33.0424 37.2924C33.3354 36.9993 33.5 36.6019 33.5 36.1875V31.5H38.1875C38.6019 31.5 38.9993 31.3354 39.2924 31.0424C39.5854 30.7493 39.75 30.3519 39.75 29.9375C39.75 29.5231 39.5854 29.1257 39.2924 28.8326C38.9993 28.5396 38.6019 28.375 38.1875 28.375H33.5V23.6875Z" fill="black"/>
</svg>
