<svg width="50" height="50" viewBox="0 0 50 50" fill="none" xmlns="http://www.w3.org/2000/svg">
<path d="M22.9313 43.7499H20.0105C12.5417 43.7499 8.80841 43.7499 6.48758 41.3853C4.16675 39.0208 4.16675 35.2145 4.16675 27.6041C4.16675 19.9937 4.16675 16.1874 6.48758 13.8228C8.80841 11.4583 12.5417 11.4583 20.0105 11.4583H27.9334C35.4022 11.4583 39.1376 11.4583 41.4584 13.8228C43.2438 15.6416 43.6542 18.3145 43.7501 22.9166" stroke="black" stroke-width="1.5" stroke-linecap="round" stroke-linejoin="round"/>
<path d="M41.7022 41.7145L45.8335 45.8333M33.3335 11.4583L33.1252 10.8125C32.0939 7.60413 31.5793 5.99996 30.3522 5.08329C29.1231 4.16663 27.4939 4.16663 24.2293 4.16663H23.6814C20.421 4.16663 18.7897 4.16663 17.5627 5.08329C16.3335 5.99996 15.8189 7.60413 14.7877 10.8125L14.5835 11.4583M43.8606 36.5125C43.877 35.5372 43.6991 34.5685 43.3373 33.6628C42.9754 32.757 42.4369 31.9324 41.753 31.2369C41.0692 30.5414 40.2537 29.9891 39.3542 29.612C38.4546 29.235 37.4891 29.0408 36.5137 29.0408C35.5384 29.0408 34.5728 29.235 33.6732 29.612C32.7737 29.9891 31.9582 30.5414 31.2744 31.2369C30.5905 31.9324 30.052 32.757 29.6901 33.6628C29.3283 34.5685 29.1504 35.5372 29.1668 36.5125C29.1993 38.4395 29.9876 40.2767 31.3619 41.6281C32.7361 42.9794 34.5863 43.7367 36.5137 43.7367C38.4411 43.7367 40.2913 42.9794 41.6655 41.6281C43.0398 40.2767 43.8281 38.4395 43.8606 36.5125Z" stroke="black" stroke-width="1.5" stroke-linecap="round" stroke-linejoin="round"/>
</svg>
