<svg width="46" height="29" viewBox="0 0 46 29" fill="none" xmlns="http://www.w3.org/2000/svg">
<path d="M31.3333 12.4608C34.7916 12.4608 37.5624 9.7829 37.5624 6.46546C37.5624 3.14803 34.7916 0.470093 31.3333 0.470093C27.8749 0.470093 25.0833 3.14803 25.0833 6.46546C25.0833 9.7829 27.8749 12.4608 31.3333 12.4608ZM14.6666 12.4608C18.1249 12.4608 20.8958 9.7829 20.8958 6.46546C20.8958 3.14803 18.1249 0.470093 14.6666 0.470093C11.2083 0.470093 8.41658 3.14803 8.41658 6.46546C8.41658 9.7829 11.2083 12.4608 14.6666 12.4608ZM14.6666 16.4577C9.81242 16.4577 0.083252 18.7959 0.083252 23.4523V28.4485H29.2499V23.4523C29.2499 18.7959 19.5208 16.4577 14.6666 16.4577ZM31.3333 16.4577C30.7291 16.4577 30.0416 16.4977 29.3124 16.5577C31.7291 18.2364 33.4166 20.4946 33.4166 23.4523V28.4485H45.9166V23.4523C45.9166 18.7959 36.1874 16.4577 31.3333 16.4577Z" fill="black"/>
</svg>
